<?xml version="1.0"?>
<svg xmlns="http://www.w3.org/2000/svg" id="Layer_1" enable-background="new 0 0 128 128" height="512px" viewBox="0 0 128 128" width="512px" class=""><g><path d="m121.852 77.376c-.523-2.07-1.597-3.571-3.067-4.192-.989-.417-2.144-.328-3.089.241-.94.566-1.557 1.539-1.649 2.604-.177 2.044-1.72 4.546-5.485 4.865-5.068.431-8.653-2.423-10.97-5.369 3.611-6.95 5.719-14.792 5.719-22.282 0-7.5-2.111-13.939-5.73-19.101-5.707-11.132-17.543-18.093-32.578-18.093-21.377 0-36.307 14.061-36.307 34.193 0 7.314 2.001 15.243 5.643 22.386-1.983 3.537-6.122 8.841-12.895 8.265-1.432-.121-2.539-.56-3.376-1.168-.039-.204-.088-.407-.106-.611-.09-1.041-.865-1.834-1.8-2.093-.1-.336-.175-.67-.203-.993-.093-1.064-.709-2.037-1.649-2.603-.944-.569-2.099-.658-3.089-.241-1.78.752-2.994 2.784-3.331 5.572-.502 4.163.999 10.58 6.885 14.964 1.184.882 2.368 1.588 3.546 2.155.018.014.033.03.052.043 8.123 6.05 16.201 3.917 22.422.047-2.209 4.584-5.048 9.578-7.909 12.228-.829.768-1.163 1.983-.871 3.17.262 1.062.979 1.848 1.917 2.103.593.16 1.267.294 2.013.38.099.765.535 1.461 1.249 1.654 4.874 1.32 15.104.795 29.962-16.586 5.484 6.018 10.335 9.753 14.503 11.995 8.088 5.562 13.904 5.488 17.21 4.575 1.328-.367 1.666-2.544.572-3.557-.451-.418-.901-.895-1.348-1.412-.008-.893-.354-1.749-.973-2.322-1.172-1.085-2.339-2.57-3.461-4.251-2.769-4.937-5.014-10.39-6.022-13.067 1.681 1.368 3.633 2.742 5.784 3.895 6.412 4.563 15.286 7.795 24.213 1.146 7.871-5.861 7.843-16.201 4.218-18.54z" fill="#e6e7e8" data-original="#E6E7E8" class=""/><path d="m114.396 70.105c-1.474-.623-3.214.414-3.352 2.009-.234 2.698-2.329 5.431-6.398 5.776-7.709.653-12.205-5.674-14.112-9.248 3.648-6.979 5.776-14.868 5.776-22.4 0-20.558-15.807-33.193-35.307-33.193s-35.307 12.635-35.307 33.193c0 7.532 2.128 15.421 5.776 22.4-1.907 3.574-6.403 9.901-14.112 9.248-4.068-.345-6.164-3.077-6.398-5.776-.138-1.595-1.878-2.633-3.352-2.009-4.077 1.724-4.435 12.708 3.762 18.813 12.498 9.309 24.893-.748 30.572-6.711.102.09-6.005 16.816-12.38 22.72-1.116 1.034-.728 3.206.628 3.574 4.967 1.345 15.491.787 30.809-17.581 15.377 18.44 25.923 18.93 30.866 17.565 1.328-.367 1.666-2.544.572-3.557-6.375-5.903-12.481-22.63-12.378-22.721 5.679 5.963 18.075 16.02 30.572 6.711 8.197-6.105 7.84-17.09 3.763-18.813z" fill="#fff" data-original="#FFF" class=""/><path d="m117.396 73.105c-1.474-.623-3.214.414-3.352 2.009-.234 2.698-2.329 5.431-6.398 5.776-7.709.653-12.205-5.674-14.112-9.248 3.648-6.979 5.776-14.868 5.776-22.4 0-20.558-15.807-33.193-35.307-33.193s-35.307 12.635-35.307 33.193c0 7.532 2.128 15.421 5.776 22.4-1.907 3.574-6.403 9.901-14.112 9.248-4.068-.345-6.164-3.077-6.398-5.776-.138-1.595-1.878-2.633-3.352-2.009-4.077 1.724-4.435 12.708 3.762 18.813 12.498 9.309 24.893-.748 30.572-6.711.102.09-6.005 16.816-12.38 22.72-1.116 1.034-.728 3.206.628 3.574 4.967 1.345 15.491.787 30.809-17.581 15.377 18.44 25.923 18.93 30.866 17.565 1.328-.367 1.666-2.544.572-3.557-6.375-5.903-12.481-22.63-12.378-22.721 5.679 5.963 18.075 16.02 30.572 6.711 8.197-6.105 7.84-17.09 3.763-18.813z" fill="#6dc9f7" data-original="#6DC9F7" class="" style="fill:#FB5252" data-old_color="#6dc9f7"/><g fill="#fa759e"><path d="m36.711 80.836c-2.045 0-3.702 1.658-3.702 3.702 0 1.549.953 2.872 2.303 3.424 1.907-1.331 3.603-2.784 5.028-4.148-.337-1.698-1.833-2.978-3.629-2.978z" data-original="#FA759E" class=""/><path d="m51.543 97.687c0 .864.304 1.651.8 2.28 1.668-1.479 3.412-3.186 5.233-5.151-.636-.518-1.446-.831-2.331-.831-2.045 0-3.702 1.657-3.702 3.702z" data-original="#FA759E" class=""/><path d="m46.509 101.111c-2.045 0-3.702 1.658-3.702 3.702 0 .572.131 1.112.363 1.595 1.903-.963 3.963-2.251 6.181-3.958-.678-.816-1.697-1.339-2.842-1.339z" data-original="#FA759E" class=""/><path d="m70.795 97.687c0 .864-.304 1.651-.8 2.28-1.668-1.479-3.412-3.186-5.233-5.151.636-.518 1.446-.831 2.331-.831 2.045 0 3.702 1.657 3.702 3.702z" data-original="#FA759E" class=""/><path d="m75.829 101.111c2.045 0 3.702 1.658 3.702 3.702 0 .572-.131 1.112-.363 1.595-1.903-.963-3.963-2.251-6.181-3.958.678-.816 1.697-1.339 2.842-1.339z" data-original="#FA759E" class=""/><path d="m30.697 89.228c0-2.045-1.657-3.702-3.702-3.702s-3.702 1.658-3.702 3.702c0 1.378.762 2.566 1.879 3.204 1.789-.311 3.514-.877 5.151-1.609.233-.485.374-1.021.374-1.595z" data-original="#FA759E" class=""/><path d="m15.748 86.878c-1.67 0-3.065 1.113-3.526 2.632 2.268 1.533 4.527 2.446 6.739 2.877.303-.537.49-1.147.49-1.807-.001-2.044-1.659-3.702-3.703-3.702z" data-original="#FA759E" class=""/><path d="m85.386 80.836c2.045 0 3.702 1.658 3.702 3.702 0 1.549-.953 2.872-2.303 3.424-1.907-1.331-3.603-2.784-5.028-4.148.337-1.698 1.833-2.978 3.629-2.978z" data-original="#FA759E" class=""/><path d="m91.4 89.228c0-2.045 1.657-3.702 3.702-3.702s3.702 1.658 3.702 3.702c0 1.378-.762 2.566-1.879 3.204-1.789-.311-3.514-.877-5.151-1.609-.233-.485-.374-1.021-.374-1.595z" data-original="#FA759E" class=""/><path d="m106.349 86.878c1.67 0 3.065 1.113 3.526 2.632-2.268 1.533-4.527 2.446-6.739 2.877-.303-.537-.49-1.147-.49-1.807.001-2.044 1.659-3.702 3.703-3.702z" data-original="#FA759E" class=""/></g><path d="m71.867 50.078c-.776 0-1.404.429-1.404.957 0 .529.629.957 1.404.957.776 0 1.404-.429 1.404-.957.001-.528-.628-.957-1.404-.957z" fill="#ffd7e5" data-original="#FFD7E5"/><path d="m50.139 50.078c-.776 0-1.404.429-1.404.957 0 .529.629.957 1.404.957s1.404-.429 1.404-.957-.629-.957-1.404-.957z" fill="#ffd7e5" data-original="#FFD7E5"/><path d="m118.116 74.755c-.336-2.788-1.55-4.819-3.33-5.571-.989-.418-2.145-.328-3.09.241-.94.566-1.557 1.54-1.648 2.603-.177 2.044-1.72 4.546-5.485 4.865-6.777.573-10.91-4.728-12.896-8.265.706-1.387 1.358-2.814 1.94-4.251.207-.512-.039-1.095-.551-1.302-.513-.208-1.096.039-1.303.551-.625 1.542-1.334 3.074-2.106 4.553-.152.293-.151.642.005.934 2.107 3.949 6.884 10.473 15.078 9.773 4.685-.397 7.047-3.644 7.31-6.686.038-.434.288-.821.688-1.062.404-.243.871-.285 1.278-.112 1.086.459 1.88 1.943 2.124 3.969.474 3.919-1.228 9.497-6.095 13.122-11.585 8.628-23.133-.237-29.09-6.432-.005-.008-.005-.017-.01-.025-.024-.038-2.487-3.81-3.455-6.772-.171-.524-.731-.811-1.261-.64-.524.171-.812.736-.64 1.261.929 2.845 3.009 6.194 3.552 7.045.718 2.607 6.668 17.59 12.627 23.109.285.265.405.778.29 1.25-.062.251-.211.544-.449.609-4.686 1.295-14.805.779-29.832-17.242-.379-.455-1.156-.455-1.535 0-14.987 17.971-25.089 18.528-29.779 17.256-.268-.072-.433-.384-.499-.651-.095-.388-.043-.917.288-1.224 5.888-5.453 11.758-20.117 12.598-22.996.396-.612 2.647-4.164 3.624-7.158.172-.525-.115-1.089-.64-1.261-.53-.173-1.091.115-1.261.641-.894 2.739-3.063 6.164-3.405 6.695-5.927 6.199-17.541 15.212-29.188 6.534-4.867-3.624-6.568-9.201-6.096-13.12.246-2.027 1.04-3.511 2.126-3.97.407-.173.874-.131 1.278.112.4.241.65.628.688 1.062.263 3.042 2.625 6.289 7.31 6.686 8.203.701 12.971-5.825 15.078-9.773.156-.292.157-.641.005-.934-3.652-6.987-5.663-14.777-5.663-21.937 0-18.955 14.107-32.193 34.307-32.193s34.308 13.238 34.308 32.193c0 1.83-.131 3.72-.389 5.616-.074.547.31 1.051.856 1.125.551.077 1.052-.309 1.126-.856.27-1.986.406-3.966.406-5.886 0-20.132-14.931-34.193-36.308-34.193s-36.306 14.062-36.306 34.194c0 7.313 2.002 15.242 5.644 22.386-1.985 3.537-6.14 8.839-12.896 8.265-3.766-.319-5.309-2.82-5.485-4.865-.092-1.063-.708-2.037-1.648-2.603-.945-.569-2.1-.66-3.09-.241-1.78.752-2.994 2.784-3.331 5.572-.502 4.163 1 10.58 6.886 14.964 11.18 8.328 22.33 1.763 28.696-3.768-2.162 5.262-6.356 14.323-10.587 18.241-.829.768-1.162 1.982-.87 3.169.261 1.063.978 1.849 1.917 2.104 5.07 1.372 15.777.939 31.07-16.995 12.19 14.296 21.469 17.477 27.309 17.477 1.506 0 2.784-.212 3.823-.499.911-.251 1.606-1.023 1.86-2.064.287-1.181-.057-2.433-.875-3.19-4.236-3.923-8.428-12.984-10.587-18.244 6.367 5.53 17.517 12.1 28.699 3.77 5.886-4.386 7.388-10.803 6.885-14.966z" fill="#3a2c60" data-original="#3A2C60" class="active-path" style="fill:#3A2C60"/><path d="m95.329 55.41c-.536-.126-1.075.209-1.2.748-.264 1.13-.576 2.282-.93 3.424-.163.527.132 1.087.659 1.251.099.031.198.045.296.045.427 0 .822-.275.955-.705.368-1.188.693-2.386.967-3.563.126-.537-.209-1.075-.747-1.2z" fill="#3a2c60" data-original="#3A2C60" class="active-path" style="fill:#3A2C60"/><path d="m49.915 45.228c0 1.541 1.249 2.789 2.789 2.789 1.541 0 2.79-1.249 2.79-2.789 0-1.541-1.249-2.79-2.79-2.79-1.54 0-2.789 1.249-2.789 2.79z" fill="#3a2c60" data-original="#3A2C60" class="active-path" style="fill:#3A2C60"/><path d="m65.299 45.228c0 1.541 1.249 2.789 2.79 2.789s2.789-1.249 2.789-2.789c0-1.541-1.249-2.79-2.789-2.79s-2.79 1.249-2.79 2.79z" fill="#3a2c60" data-original="#3A2C60" class="active-path" style="fill:#3A2C60"/><path d="m62.871 53.969c0 1.157-1.109 2.098-2.474 2.098s-2.475-.941-2.475-2.098c0-.552-.447-1-1-1s-1 .448-1 1c0 2.259 2.007 4.098 4.475 4.098 2.467 0 4.474-1.838 4.474-4.098 0-.552-.447-1-1-1s-1 .448-1 1z" fill="#3a2c60" data-original="#3A2C60" class="active-path" style="fill:#3A2C60"/></g> </svg>
