<?xml version="1.0" encoding="UTF-8"?>
<svg width="820px" height="200px" viewBox="0 0 820 200" version="1.1" xmlns="http://www.w3.org/2000/svg" xmlns:xlink="http://www.w3.org/1999/xlink">
    <!-- Generator: Sketch 43.2 (39069) - http://www.bohemiancoding.com/sketch -->
    <title>Group 2</title>
    <desc>Created with Sketch.</desc>
    <defs>
        <linearGradient x1="13.1916392%" y1="193.495516%" x2="67.5308199%" y2="-74.8841339%" id="linearGradient-1">
            <stop stop-color="#F44545" offset="0%"></stop>
            <stop stop-color="#F46B45" offset="100%"></stop>
        </linearGradient>
        <linearGradient x1="12.3203125%" y1="87.1992188%" x2="100%" y2="0%" id="linearGradient-2">
            <stop stop-color="#F44545" offset="0%"></stop>
            <stop stop-color="#F46B45" offset="100%"></stop>
        </linearGradient>
    </defs>
    <g id="Page-1-Copy" stroke="none" stroke-width="1" fill="none" fill-rule="evenodd">
        <g id="Original" transform="translate(-418.000000, -192.000000)">
            <g id="Group-2" transform="translate(418.000000, 192.000000)">
                <path d="M286.908203,110.078125 C290.143896,104.92836 292.90103,100.917983 295.179688,98.046875 L312.542969,76.171875 L342.347656,76.171875 L315.482422,109.121094 L344.056641,153.623047 L313.5,153.623047 L296.546875,125.869141 L287.865234,132.5 L287.865234,153.623047 L261,153.623047 L261,47.2558594 L287.865234,47.2558594 L287.865234,89.0917969 C287.865234,96.2467806 287.363937,103.242153 286.361328,110.078125 L286.908203,110.078125 Z M376.150391,153.623047 L349.421875,153.623047 L349.421875,76.171875 L376.150391,76.171875 L376.150391,153.623047 Z M348.738281,58.8945312 C348.738281,54.8840945 349.854807,51.8990983 352.087891,49.9394531 C354.320975,47.9798079 357.921199,47 362.888672,47 C367.856145,47 371.479155,48.0025941 373.757812,50.0078125 C376.03647,52.0130309 377.175781,54.9752408 377.175781,58.8945312 C377.175781,66.7331121 372.413459,70.6523438 362.888672,70.6523438 C353.455031,70.6523438 348.738281,66.7331121 348.738281,58.8945312 Z M426.085938,154.990234 C413.416603,154.990234 403.812207,151.5723 397.272461,144.736328 C390.732715,137.900356 387.462891,128.079491 387.462891,115.273438 C387.462891,102.421811 390.994756,92.464228 398.058594,85.4003906 C405.122431,78.3365532 415.171159,74.8046875 428.205078,74.8046875 C437.182988,74.8046875 445.636679,76.7643033 453.566406,80.6835938 L445.705078,100.439453 C442.469385,99.0266856 439.484389,97.8987672 436.75,97.0556641 C434.015611,96.2125609 431.167333,95.7910156 428.205078,95.7910156 C423.875629,95.7910156 420.526054,97.4771967 418.15625,100.849609 C415.786446,104.222022 414.601562,108.984344 414.601562,115.136719 C414.601562,127.532614 419.181595,133.730469 428.341797,133.730469 C436.180378,133.730469 443.699834,131.451846 450.900391,126.894531 L450.900391,148.154297 C444.018846,152.711611 435.747444,154.990234 426.085938,154.990234 Z M488.189453,110.078125 C491.425146,104.92836 494.18228,100.917983 496.460938,98.046875 L513.824219,76.171875 L543.628906,76.171875 L516.763672,109.121094 L545.337891,153.623047 L514.78125,153.623047 L497.828125,125.869141 L489.146484,132.5 L489.146484,153.623047 L462.28125,153.623047 L462.28125,47.2558594 L489.146484,47.2558594 L489.146484,89.0917969 C489.146484,96.2467806 488.645187,103.242153 487.642578,110.078125 L488.189453,110.078125 Z M610.380859,129.833984 C610.380859,138.128297 607.555367,144.39451 601.904297,148.632812 C596.253227,152.871115 588.141329,154.990234 577.568359,154.990234 C571.826143,154.990234 566.835959,154.68262 562.597656,154.067383 C558.359354,153.452145 554.02997,152.324227 549.609375,150.683594 L549.609375,129.287109 C553.756531,131.110035 558.302384,132.613926 563.24707,133.798828 C568.191756,134.98373 572.600892,135.576172 576.474609,135.576172 C582.262399,135.576172 585.15625,134.254571 585.15625,131.611328 C585.15625,130.244134 584.347339,129.02507 582.729492,127.954102 C581.111646,126.883133 576.406289,124.798193 568.613281,121.699219 C561.503871,118.782537 556.536472,115.467141 553.710938,111.75293 C550.885403,108.038718 549.472656,103.333362 549.472656,97.6367188 C549.472656,90.4361619 552.252576,84.8307492 557.8125,80.8203125 C563.372424,76.8098758 571.233673,74.8046875 581.396484,74.8046875 C586.500677,74.8046875 591.297178,75.3629501 595.786133,76.4794922 C600.275088,77.5960342 604.934872,79.2252497 609.765625,81.3671875 L602.519531,98.59375 C598.964826,96.9986899 595.205098,95.6429092 591.240234,94.5263672 C587.275371,93.4098251 584.039726,92.8515625 581.533203,92.8515625 C577.158181,92.8515625 574.970703,93.9225153 574.970703,96.0644531 C574.970703,97.3860743 575.734042,98.5139927 577.260742,99.4482422 C578.787443,100.382492 583.196578,102.285142 590.488281,105.15625 C595.911485,107.389334 599.956041,109.576812 602.62207,111.71875 C605.288099,113.860688 607.247715,116.378566 608.500977,119.272461 C609.754238,122.166356 610.380859,125.686828 610.380859,129.833984 Z M659.154297,133.867188 C662.754575,133.867188 667.061173,132.978525 672.074219,131.201172 L672.074219,150.683594 C668.47394,152.233081 665.044613,153.338213 661.786133,153.999023 C658.527653,154.659834 654.710959,154.990234 650.335938,154.990234 C641.358028,154.990234 634.886739,152.791363 630.921875,148.393555 C626.957011,143.995746 624.974609,137.239629 624.974609,128.125 L624.974609,96.2011719 L615.609375,96.2011719 L615.609375,85.3320312 L627.503906,76.9238281 L634.408203,60.6542969 L651.908203,60.6542969 L651.908203,76.171875 L670.912109,76.171875 L670.912109,96.2011719 L651.908203,96.2011719 L651.908203,126.347656 C651.908203,131.360702 654.323544,133.867188 659.154297,133.867188 Z M719.001953,154.990234 C706.104753,154.990234 696.090205,151.560907 688.958008,144.702148 C681.825811,137.84339 678.259766,128.07949 678.259766,115.410156 C678.259766,102.330664 681.563769,92.2933292 688.171875,85.2978516 C694.779981,78.3023739 704.21348,74.8046875 716.472656,74.8046875 C728.139381,74.8046875 737.151335,77.8466493 743.508789,83.9306641 C749.866243,90.0146789 753.044922,98.7759845 753.044922,110.214844 L753.044922,122.109375 L705.261719,122.109375 C705.444011,126.438824 707.027654,129.833972 710.012695,132.294922 C712.997736,134.755872 717.065078,135.986328 722.214844,135.986328 C726.908878,135.986328 731.226868,135.541997 735.168945,134.65332 C739.111022,133.764644 743.383441,132.24936 747.986328,130.107422 L747.986328,149.316406 C743.793599,151.458344 739.464215,152.939449 734.998047,153.759766 C730.531879,154.580082 725.199901,154.990234 719.001953,154.990234 Z M717.429688,92.9882812 C714.285141,92.9882812 711.653331,93.9794823 709.53418,95.9619141 C707.415028,97.9443458 706.173179,101.054666 705.808594,105.292969 L728.777344,105.292969 C728.686197,101.555971 727.626638,98.5709747 725.598633,96.3378906 C723.570628,94.1048065 720.847673,92.9882812 717.429688,92.9882812 Z M810.910156,74.8046875 C813.234387,74.8046875 815.444651,74.9869773 817.541016,75.3515625 L819.044922,75.625 L816.652344,100.849609 C814.464833,100.302732 811.434264,100.029297 807.560547,100.029297 C801.727184,100.029297 797.488946,101.362291 794.845703,104.02832 C792.202461,106.694349 790.880859,110.533829 790.880859,115.546875 L790.880859,153.623047 L764.152344,153.623047 L764.152344,76.171875 L784.044922,76.171875 L788.214844,88.5449219 L789.513672,88.5449219 C791.746756,84.4433389 794.857076,81.1279423 798.844727,78.5986328 C802.832377,76.0693233 806.854146,74.8046875 810.910156,74.8046875 Z" id="kickster-copy" fill="url(#linearGradient-1)"></path>
                <path d="M24.8415464,176.986231 C22.8153998,177.8643 21.8844231,176.934236 22.7627677,174.907453 L46.4436877,120.263653 C47.3217565,118.237506 49.3042752,117.865693 50.8630499,119.424468 L80.324531,148.885949 C81.8872086,150.448627 81.5121291,152.426967 79.4853461,153.305311 L24.8415464,176.986231 Z M146.961628,126.623894 L149.949901,139.157512 C150.817343,142.784478 149.362328,147.907907 146.723138,150.543242 L98.727191,198.469832 C96.0880008,201.105168 93.4548292,200.251012 92.8725221,196.56545 L87.4180953,161.902678 C86.8395499,158.22012 88.5232751,153.052369 91.1654746,150.414029 C91.1654746,150.414029 92.966564,148.629844 91.0857272,146.751755 C81.6258702,137.305716 63.1763656,118.882409 53.2485565,108.969852 C51.4474672,107.173647 49.6576629,108.966847 49.6576629,108.966847 C47.0184726,111.605188 41.8401527,113.286453 38.1522078,112.708753 L3.43873099,107.262293 C-0.24921386,106.683842 -1.10762779,104.051511 1.53156245,101.416176 L49.5282613,53.4895857 C52.1674515,50.8550017 57.3013837,49.4051166 60.9306465,50.2675353 L74.0114904,53.3784028 C76.9418342,53.9891575 78.5781623,52.5422773 79.4072351,51.7790217 C121.391275,13.2165854 175.618058,-12.1872046 193.8381,6.00622417 C212.158955,24.3003185 187.437988,80.1704765 148.540026,122.101454 C147.837345,122.861705 146.161896,124.085468 146.961628,126.623894 Z M140.499617,60.4293815 C146.262944,66.1848223 155.606745,66.1848223 161.372739,60.4293815 C167.136065,54.6739407 167.136065,45.3421899 161.372739,39.5867491 C155.606745,33.8318409 146.262944,33.8318409 140.499617,39.5867491 C134.733623,45.3421899 134.733623,54.6739407 140.499617,60.4293815 Z" id="Combined-Shape" fill="url(#linearGradient-2)"></path>
            </g>
        </g>
    </g>
</svg>